<?xml version="1.0" encoding="UTF-8"?>
<svg version="1.1" xmlns="http://www.w3.org/2000/svg" width="226" height="218">
<path d="M0 0 C1.24136719 0.95519531 1.24136719 0.95519531 2.5078125 1.9296875 C18.07739878 14.86366983 29.69533803 37.09796356 32 57 C33.01387219 72.12270419 33.6522853 87.71031623 28 102 C27.38125 103.73443359 27.38125 103.73443359 26.75 105.50390625 C17.00838846 130.71586112 -3.93797703 148.88081578 -27.796875 160.34375 C-42.83215534 166.50728107 -59.91850807 166.43280981 -75.88671875 166.29296875 C-77.8101213 166.28735367 -79.73352822 166.28309266 -81.65693665 166.28010559 C-86.64959157 166.26880698 -91.64197265 166.23947437 -96.63452148 166.20599365 C-101.75696105 166.17496408 -106.8794461 166.16153096 -112.00195312 166.14648438 C-122.00142052 166.11458579 -132.00068724 166.06357786 -142 166 C-142.59936523 164.15722656 -142.59936523 164.15722656 -143 162 C-141.41015625 159.484375 -141.41015625 159.484375 -139.0625 156.75 C-137.82886719 155.30173828 -137.82886719 155.30173828 -136.5703125 153.82421875 C-133.66677543 150.63385811 -130.63529097 147.64354721 -127.43359375 144.75390625 C-125.57809193 142.86136607 -125.57809193 142.86136607 -126 139 C-126.56203125 138.77828125 -127.1240625 138.5565625 -127.703125 138.328125 C-140.70271642 130.81135445 -150.05668947 109.7424212 -154 96 C-160.228244 69.22358712 -156.37226812 43.55119566 -142 20 C-127.29850311 -1.58868463 -106.54517626 -16.177372 -80.984375 -21.4765625 C-51.54528425 -26.63996323 -22.59267666 -19.55293471 0 0 Z M-98.14453125 40.71875 C-107.11691644 51.75006147 -110.16078225 64.44926517 -108.76171875 78.37109375 C-106.73874655 91.14238287 -99.65200388 101.74888111 -89.73828125 109.84765625 C-78.85108604 117.58079491 -65.86989712 119.53049687 -52.80078125 117.50390625 C-40.53913074 114.72501747 -30.38319227 108.40315185 -22.91796875 98.13671875 C-15.66134272 86.35806891 -13.03108326 74.28993392 -15.65625 60.5703125 C-19.08980142 47.99049048 -26.83859812 37.74586245 -37.8125 30.75 C-58.33354042 19.27784885 -82.05037991 24.01424162 -98.14453125 40.71875 Z " fill="#E41D25" transform="translate(174,35)"/>
<path d="M0 0 C0.99 0.33 1.98 0.66 3 1 C-13.88833939 13.88545985 -32.94859884 19.2104516 -54.00805664 19.11352539 C-55.28286896 19.11374443 -55.28286896 19.11374443 -56.58343506 19.1139679 C-59.35903585 19.1132779 -62.13456735 19.10552881 -64.91015625 19.09765625 C-66.84785424 19.09578882 -68.78555271 19.09436645 -70.72325134 19.09336853 C-75.79813972 19.08956896 -80.87299901 19.07976078 -85.94787598 19.06866455 C-91.13647061 19.05839514 -96.32506999 19.05385911 -101.51367188 19.04882812 C-111.67579396 19.038136 -121.83789455 19.02109065 -132 19 C-132.61254883 17.17260742 -132.61254883 17.17260742 -133 15 C-131.19921875 12.23828125 -131.19921875 12.23828125 -128.6875 9.3125 C-127.86636719 8.33925781 -127.04523438 7.36601562 -126.19921875 6.36328125 C-124 4 -124 4 -122 3 C-122.33 5.64 -122.66 8.28 -123 11 C-123.66 10.67 -124.32 10.34 -125 10 C-128.42578949 13.17539556 -128.42578949 13.17539556 -131 17 C-119.89828702 16.91521219 -108.79671174 16.82018374 -97.69519615 16.71247292 C-92.53901171 16.66275921 -87.38284532 16.61642923 -82.2265625 16.578125 C-77.24031351 16.54095451 -72.25422548 16.4945134 -67.268116 16.44193649 C-65.37619507 16.42355973 -63.48423986 16.4083918 -61.59226608 16.39665604 C-43.63418585 17.46751258 -43.63418585 17.46751258 -28 12 C-25.16802143 11.13790607 -22.31222192 10.47002449 -19.43359375 9.78125 C-18.63050781 9.5234375 -17.82742187 9.265625 -17 9 C-16.67 8.34 -16.34 7.68 -16 7 C-13.67843403 6.59270772 -11.3431213 6.25561323 -9 6 C-9 5.34 -9 4.68 -9 4 C-7.68 4 -6.36 4 -5 4 C-5 3.34 -5 2.68 -5 2 C-3.35 2 -1.7 2 0 2 C0 1.34 0 0.68 0 0 Z " fill="#EEB6B9" transform="translate(164,182)"/>
<path d="M0 0 C0.33 0 0.66 0 1 0 C1 2.31 1 4.62 1 7 C0.34 7 -0.32 7 -1 7 C-0.97679687 7.96421875 -0.95359375 8.9284375 -0.9296875 9.921875 C-0.91164063 11.18515625 -0.89359375 12.4484375 -0.875 13.75 C-0.85179687 15.00296875 -0.82859375 16.2559375 -0.8046875 17.546875 C-1 21 -1 21 -1.99780273 22.78515625 C-3.39828939 25.88021471 -3.24181506 28.50275073 -3.23046875 31.890625 C-3.23001053 32.55406921 -3.22955231 33.21751343 -3.2290802 33.90106201 C-3.22606589 35.30303742 -3.21820413 36.70500972 -3.20581055 38.10693359 C-3.18767972 40.22896508 -3.18530029 42.35055572 -3.18554688 44.47265625 C-3.16781363 51.0508175 -3.05296363 57.49689665 -2 64 C-3.86530492 61.20204262 -4.33956599 60.0939764 -4.8515625 56.9375 C-4.98095215 56.14674072 -5.1103418 55.35598145 -5.24365234 54.54125977 C-7.99937932 36.17739158 -7.80595828 17.27613102 0 0 Z " fill="#EFA0A3" transform="translate(24,70)"/>
<path d="M0 0 C7.58335672 7.58335672 6.45374231 24.37724316 6.5 34.125 C6.43064168 44.6739472 5.92404782 54.10839063 2 64 C1.54496094 65.17175781 1.08992187 66.34351563 0.62109375 67.55078125 C-0.5309707 70.39647892 -1.73017377 73.20534145 -3 76 C-4.1087792 72.67366241 -3.86099192 71.41479194 -3.125 68.0625 C-2.94195312 67.20785156 -2.75890625 66.35320312 -2.5703125 65.47265625 C-2.07107627 63.30815944 -1.54930344 61.15227076 -1 59 C-0.34 59 0.32 59 1 59 C1.13277344 58.37351563 1.26554688 57.74703125 1.40234375 57.1015625 C1.57894531 56.28429687 1.75554687 55.46703125 1.9375 54.625 C2.19853516 53.40683594 2.19853516 53.40683594 2.46484375 52.1640625 C3 50 3 50 4 48 C4.24658276 43.85948171 4.18522267 39.70951761 4.1875 35.5625 C4.19974609 34.42361328 4.21199219 33.28472656 4.22460938 32.11132812 C4.23942527 23.46378611 3.34152449 15.36147517 0.875 7.0625 C0 4 0 4 0 0 Z " fill="#F5C2C5" transform="translate(200,73)"/>
<path d="M0 0 C0.33 0.66 0.66 1.32 1 2 C0.34 2 -0.32 2 -1 2 C-0.67 3.32 -0.34 4.64 0 6 C28.38 6 56.76 6 86 6 C86 6.33 86 6.66 86 7 C81.48833867 8.13149691 77.06538176 8.13440157 72.44604492 8.11352539 C71.59675415 8.11367142 70.74746338 8.11381744 69.87243652 8.1139679 C67.07508763 8.11327319 64.27780596 8.10550149 61.48046875 8.09765625 C59.5370538 8.0957905 57.59363837 8.09436734 55.65022278 8.09336853 C50.54239599 8.08955571 45.43459776 8.07973597 40.32678223 8.06866455 C35.11173896 8.05842387 29.89669106 8.05386522 24.68164062 8.04882812 C14.45441455 8.0381126 4.22720965 8.02105101 -6 8 C-4.58902801 4.11664917 -3.53556325 2.23919006 0 0 Z " fill="#D72A33" transform="translate(39,191)"/>
<path d="M0 0 C0.66 0.33 1.32 0.66 2 1 C1.375 2.875 1.375 2.875 0 5 C-3 6.1875 -3 6.1875 -6 7 C-6.66 7.33 -7.32 7.66 -8 8 C-12.64119958 8.24518456 -17.29055844 8.18520521 -21.9375 8.1875 C-23.23880859 8.19974609 -24.54011719 8.21199219 -25.88085938 8.22460938 C-27.74774414 8.22750977 -27.74774414 8.22750977 -29.65234375 8.23046875 C-30.79695068 8.23457764 -31.94155762 8.23868652 -33.12084961 8.24291992 C-36 8 -36 8 -39 6 C-39 5.34 -39 4.68 -39 4 C-39.99 3.67 -40.98 3.34 -42 3 C-39.22363246 1.61181623 -38.10261818 2.47717556 -35.1875 3.4375 C-24.40735258 6.49140599 -11.88261253 6.14288983 -1.78515625 0.8359375 C-1.19605469 0.56007812 -0.60695312 0.28421875 0 0 Z " fill="#EE9294" transform="translate(134,147)"/>
<path d="M0 0 C0.93065133 2.60582371 1.14917407 3.64198224 0.0625 6.25 C-0.288125 6.8275 -0.63875 7.405 -1 8 C-1.99 8 -2.98 8 -4 8 C-5.32 9.98 -6.64 11.96 -8 14 C3.88 14 15.76 14 28 14 C28 14.33 28 14.66 28 15 C15.6497088 15.89587605 3.38077633 16.11522956 -9 16 C-9.61474609 14.17260742 -9.61474609 14.17260742 -10 12 C-8.1640625 9.23828125 -8.1640625 9.23828125 -5.625 6.3125 C-4.79226562 5.33925781 -3.95953125 4.36601562 -3.1015625 3.36328125 C-1 1 -1 1 0 0 Z " fill="#EAAFB2" transform="translate(41,185)"/>
<path d="M0 0 C1.39973314 0.01005602 2.79947331 0.01917721 4.19921875 0.02734375 C7.59132925 0.05073762 10.9830706 0.08351827 14.375 0.125 C14.375 0.785 14.375 1.445 14.375 2.125 C15.695 2.125 17.015 2.125 18.375 2.125 C20.125 3.5 20.125 3.5 21.375 5.125 C21.375 5.785 21.375 6.445 21.375 7.125 C20.80652344 6.93164062 20.23804688 6.73828125 19.65234375 6.5390625 C18.49412109 6.14847656 18.49412109 6.14847656 17.3125 5.75 C16.55839844 5.49476562 15.80429688 5.23953125 15.02734375 4.9765625 C13.71443359 4.55503906 13.71443359 4.55503906 12.375 4.125 C11.29734375 3.76921875 10.2196875 3.4134375 9.109375 3.046875 C4.86916152 2.00012774 1.03531816 1.74301443 -3.3125 1.75 C-4.4890918 1.74697876 -4.4890918 1.74697876 -5.68945312 1.74389648 C-11.73182738 1.84843797 -16.823119 3.03172409 -22.4375 5.34765625 C-23.159375 5.60417969 -23.88125 5.86070313 -24.625 6.125 C-25.285 5.795 -25.945 5.465 -26.625 5.125 C-26.295 4.135 -25.965 3.145 -25.625 2.125 C-17.11345762 -0.12529451 -8.73213834 -0.11006025 0 0 Z " fill="#F5CDCE" transform="translate(115.625,58.875)"/>
<path d="M0 0 C0.99 0.33 1.98 0.66 3 1 C-5.95383219 7.73965243 -14.6362258 13.20254216 -26 14 C-27.34084736 14.30169066 -28.6806062 14.61517681 -30 15 C-27.57346639 11.36019959 -26.56964465 11.38029702 -22.4375 10.4375 C-20.61050212 10.01698163 -18.79242332 9.54952304 -17 9 C-16.67 8.34 -16.34 7.68 -16 7 C-13.67843403 6.59270772 -11.3431213 6.25561323 -9 6 C-9 5.34 -9 4.68 -9 4 C-7.68 4 -6.36 4 -5 4 C-5 3.34 -5 2.68 -5 2 C-3.35 2 -1.7 2 0 2 C0 1.34 0 0.68 0 0 Z " fill="#E2464E" transform="translate(164,182)"/>
<path d="M0 0 C1.32 0.33 2.64 0.66 4 1 C5.21062871 6.74072324 5.21993622 12.41011033 5.25 18.25 C5.270625 19.23613281 5.29125 20.22226563 5.3125 21.23828125 C5.34805971 27.98573703 4.31260651 33.66213268 2 40 C1.34 40 0.68 40 0 40 C0.2165625 39.22398438 0.433125 38.44796875 0.65625 37.6484375 C3.51947594 26.54018131 4.63376047 15.94484945 0.65625 4.98828125 C0 3 0 3 0 0 Z " fill="#F4C0C2" transform="translate(155,86)"/>
<path d="M0 0 C0 0.66 0 1.32 0 2 C-1.423125 2.37125 -1.423125 2.37125 -2.875 2.75 C-6.51931151 4.20772461 -6.40005671 4.70011696 -8 8 C-9.97522846 9.04808041 -11.97481509 10.0520411 -14 11 C-14.33 11.66 -14.66 12.32 -15 13 C-16.423125 13.4021875 -16.423125 13.4021875 -17.875 13.8125 C-21.57784756 15.21958207 -22.34059686 16.49681559 -24 20 C-25.32 19.67 -26.64 19.34 -28 19 C-21.88246286 12.15418463 -10.05457779 0 0 0 Z " fill="#ED858A" transform="translate(73,21)"/>
<path d="M0 0 C1.7074998 1.28062485 3.37373596 2.61767557 5 4 C5 4.66 5 5.32 5 6 C5.66 6 6.32 6 7 6 C7.33 5.34 7.66 4.68 8 4 C8.33 6.97 8.66 9.94 9 13 C10.32 13.33 11.64 13.66 13 14 C13 15.98 13 17.96 13 20 C7.2704495 14.96494047 1.36787256 7.64928736 0 0 Z " fill="#EE868B" transform="translate(27,146)"/>
<path d="M0 0 C0 0.99 0 1.98 0 3 C-0.45375 3.433125 -0.9075 3.86625 -1.375 4.3125 C-3.57631806 6.59848414 -4.06227159 8.9992691 -5 12 C-5.99 13.485 -5.99 13.485 -7 15 C-7.66 15 -8.32 15 -9 15 C-9 15.66 -9 16.32 -9 17 C-10.65 17.66 -12.3 18.32 -14 19 C-12.62111791 15.02682945 -10.78436958 12.18393796 -8.125 8.9375 C-7.44695313 8.10089844 -6.76890625 7.26429687 -6.0703125 6.40234375 C-4.1359826 4.15779113 -2.12510154 2.06315912 0 0 Z " fill="#EA7A7F" transform="translate(44,41)"/>
<path d="M0 0 C0.99 0.33 1.98 0.66 3 1 C3 3.64 3 6.28 3 9 C3.66 9 4.32 9 5 9 C6.5912689 13.873261 7.21192221 17.80790596 7 23 C2.85904733 17.91792173 1.71871867 13.13592126 0.875 6.6875 C0.70742188 5.43324219 0.53984375 4.17898437 0.3671875 2.88671875 C0.24601562 1.93410156 0.12484375 0.98148437 0 0 Z " fill="#E97278" transform="translate(20,123)"/>
<path d="M0 0 C5.81013325 0.51985403 10.27758546 2.2088609 15.5 4.75 C16.22058594 5.08515625 16.94117188 5.4203125 17.68359375 5.765625 C22.52005763 8.07453362 26.71824586 10.77741662 31 14 C30.01 14.495 30.01 14.495 29 15 C26.08081963 13.46657841 23.30017927 11.79538423 20.49414062 10.06835938 C16.39064593 7.61331475 12.65304778 6.1289166 8 5 C8 4.34 8 3.68 8 3 C5.36 2.34 2.72 1.68 0 1 C0 0.67 0 0.34 0 0 Z " fill="#F6C8CB" transform="translate(137,16)"/>
<path d="M0 0 C0.33 0.66 0.66 1.32 1 2 C2.65 1.67 4.3 1.34 6 1 C2.32167983 5.52615993 -1.41086363 9.39424999 -6 13 C-6.66 12.67 -7.32 12.34 -8 12 C-7.67 10.68 -7.34 9.36 -7 8 C-6.01 8 -5.02 8 -4 8 C-4 7.34 -4 6.68 -4 6 C-3.34 6 -2.68 6 -2 6 C-1.34 4.02 -0.68 2.04 0 0 Z " fill="#EB676D" transform="translate(175,169)"/>
<path d="M0 0 C2.46800047 1.15173355 4.04783565 2.04783565 6 4 C8.58354218 4.16687448 8.58354218 4.16687448 11 4 C11.13277344 4.60328125 11.26554688 5.2065625 11.40234375 5.828125 C11.57894531 6.62734375 11.75554687 7.4265625 11.9375 8.25 C12.11152344 9.03890625 12.28554687 9.8278125 12.46484375 10.640625 C12.947556 12.76878703 13.46163178 14.88532842 14 17 C13.43667969 16.28199219 12.87335938 15.56398438 12.29296875 14.82421875 C9.31126397 11.1516931 6.12021599 7.69424561 2.92578125 4.20703125 C1 2 1 2 0 0 Z " fill="#F09EA2" transform="translate(141,69)"/>
<path d="M0 0 C0.99 0.33 1.98 0.66 3 1 C-3.52084184 5.90831262 -10.19551489 10.39850496 -18 13 C-18.66 12.67 -19.32 12.34 -20 12 C-17.87767021 10.82823482 -15.75242209 9.66245215 -13.625 8.5 C-13.02171875 8.16613281 -12.4184375 7.83226562 -11.796875 7.48828125 C-7.2265625 5 -7.2265625 5 -5 5 C-5 4.01 -5 3.02 -5 2 C-3.35 2 -1.7 2 0 2 C0 1.34 0 0.68 0 0 Z " fill="#F7CFD1" transform="translate(164,182)"/>
<path d="M0 0 C0 0.66 0 1.32 0 2 C-2.34140401 3.170702 -4.01770122 3.20548522 -6.625 3.375 C-10.18614095 3.68421629 -13.12831248 4.27431121 -16.4375 5.625 C-20 7 -20 7 -23 6 C-7.65327696 -0.47832981 -7.65327696 -0.47832981 0 0 Z " fill="#F3B9BB" transform="translate(96,14)"/>
<path d="M0 0 C2.05015793 4.10031586 -0.75987088 9.78570842 -2 14 C-2.89540716 16.41318254 -3.89020247 18.67470995 -5 21 C-6.1087792 17.67366241 -5.86099192 16.41479194 -5.125 13.0625 C-4.94195312 12.20785156 -4.75890625 11.35320312 -4.5703125 10.47265625 C-4.07107627 8.30815944 -3.54930344 6.15227076 -3 4 C-2.34 4 -1.68 4 -1 4 C-0.67 2.68 -0.34 1.36 0 0 Z " fill="#EA7880" transform="translate(202,128)"/>
<path d="M0 0 C0.33 0 0.66 0 1 0 C1.14695312 0.92619141 1.14695312 0.92619141 1.296875 1.87109375 C2.27326467 7.40116284 3.72611413 12.14096319 6.1953125 17.1875 C7 19 7 19 7 21 C6.34 21 5.68 21 5 21 C5 20.01 5 19.02 5 18 C4.01 18 3.02 18 2 18 C-0.1583195 11.92972642 -0.20852314 6.40629424 0 0 Z " fill="#F1AAAD" transform="translate(65,111)"/>
<path d="M0 0 C2.64 0 5.28 0 8 0 C8 0.66 8 1.32 8 2 C9.32 2 10.64 2 12 2 C13.75 3.375 13.75 3.375 15 5 C15 5.66 15 6.32 15 7 C9 5 9 5 3 3 C3 2.34 3 1.68 3 1 C2.01 0.67 1.02 0.34 0 0 Z " fill="#EA7B80" transform="translate(122,59)"/>
<path d="M0 0 C0.99 0 1.98 0 3 0 C2.01 7.26 1.02 14.52 0 22 C-0.33 22 -0.66 22 -1 22 C-1.02887814 18.52085059 -1.04675687 15.04173169 -1.0625 11.5625 C-1.07087891 10.56927734 -1.07925781 9.57605469 -1.08789062 8.55273438 C-1.09111328 7.60849609 -1.09433594 6.66425781 -1.09765625 5.69140625 C-1.10289307 4.81685791 -1.10812988 3.94230957 -1.11352539 3.04125977 C-1 1 -1 1 0 0 Z " fill="#EEA1A4" transform="translate(65,89)"/>
<path d="M0 0 C0.93065133 2.60582371 1.14917407 3.64198224 0.0625 6.25 C-0.288125 6.8275 -0.63875 7.405 -1 8 C-1.99 8 -2.98 8 -4 8 C-5.46090788 9.5354878 -5.46090788 9.5354878 -6.6875 11.5 C-7.12449219 12.1496875 -7.56148437 12.799375 -8.01171875 13.46875 C-8.33785156 13.9740625 -8.66398437 14.479375 -9 15 C-9.33 14.01 -9.66 13.02 -10 12 C-8.1640625 9.3359375 -8.1640625 9.3359375 -5.625 6.375 C-4.79226562 5.39273438 -3.95953125 4.41046875 -3.1015625 3.3984375 C-1 1 -1 1 0 0 Z " fill="#F1A2A5" transform="translate(41,185)"/>
<path d="M0 0 C6.20104812 -0.27560214 11.93184478 0.77100654 18 2 C18 2.33 18 2.66 18 3 C15.95840905 3.0272616 13.91671037 3.04651345 11.875 3.0625 C10.73804688 3.07410156 9.60109375 3.08570313 8.4296875 3.09765625 C5.1870844 3.005327 2.18067388 2.61389906 -1 2 C-0.67 1.34 -0.34 0.68 0 0 Z " fill="#E03B44" transform="translate(119,14)"/>
<path d="M0 0 C0 3.32058331 -0.43061972 5.08543662 -2 8 C-4.6627865 9.54161324 -6.12642031 10.18606932 -9.1640625 9.5390625 C-9.76992187 9.36117187 -10.37578125 9.18328125 -11 9 C-10.37351563 8.51789063 -9.74703125 8.03578125 -9.1015625 7.5390625 C-7.87566406 6.59160156 -7.87566406 6.59160156 -6.625 5.625 C-5.81289062 4.99851563 -5.00078125 4.37203125 -4.1640625 3.7265625 C-1.95776805 2.03226506 -1.95776805 2.03226506 0 0 Z " fill="#ED969A" transform="translate(147,137)"/>
<path d="M0 0 C0.969375 0.86625 1.93875 1.7325 2.9375 2.625 C7.03550142 6.15196844 11.45085539 9.09102317 16 12 C15.01 12.33 14.02 12.66 13 13 C11.64082143 12.03542166 10.30915279 11.03145371 9 10 C8.319375 9.87625 7.63875 9.7525 6.9375 9.625 C5 9 5 9 3.375 6.6875 C2.23750744 4.46421909 1.11493053 2.23462572 0 0 Z " fill="#F2B2B6" transform="translate(75,136)"/>
<path d="M0 0 C0.33 0 0.66 0 1 0 C1.32613618 4.67461851 0.70582788 7.16674383 -2 11 C-3.32 10.67 -4.64 10.34 -6 10 C-5.02526874 8.33073546 -4.04510211 6.66464358 -3.0625 5 C-2.24458984 3.6078125 -2.24458984 3.6078125 -1.41015625 2.1875 C-0.71212891 1.1046875 -0.71212891 1.1046875 0 0 Z " fill="#EF8C91" transform="translate(154,126)"/>
<path d="M0 0 C3.33511388 2.9901021 5.21521119 5.89498574 7 10 C7 10.66 7 11.32 7 12 C6.34 12 5.68 12 5 12 C4.731875 11.360625 4.46375 10.72125 4.1875 10.0625 C3.11332248 7.66868314 3.11332248 7.66868314 0 7 C0 4.69 0 2.38 0 0 Z " fill="#ED8F94" transform="translate(191,56)"/>
<path d="M0 0 C2.64 0.66 5.28 1.32 8 2 C8 2.66 8 3.32 8 4 C10.31 4.33 12.62 4.66 15 5 C15 5.33 15 5.66 15 6 C13.5629191 6.05422947 12.12524538 6.09289723 10.6875 6.125 C9.88699219 6.14820313 9.08648437 6.17140625 8.26171875 6.1953125 C6 6 6 6 3 4 C3 3.34 3 2.68 3 2 C2.01 1.67 1.02 1.34 0 1 C0 0.67 0 0.34 0 0 Z " fill="#E97075" transform="translate(92,149)"/>
<path d="M0 0 C1.32 0.33 2.64 0.66 4 1 C4.33 4.63 4.66 8.26 5 12 C4.67 11.01 4.34 10.02 4 9 C3.34 9 2.68 9 2 9 C1.34 6.03 0.68 3.06 0 0 Z " fill="#EB7B7E" transform="translate(155,86)"/>
<path d="M0 0 C0.33 0 0.66 0 1 0 C1 2.31 1 4.62 1 7 C0.34 7 -0.32 7 -1 7 C-0.938125 7.763125 -0.87625 8.52625 -0.8125 9.3125 C-1 12 -1 12 -2.5 13.8125 C-2.995 14.204375 -3.49 14.59625 -4 15 C-3.43179252 9.54520815 -2.05362055 5.08940744 0 0 Z " fill="#F3B8B9" transform="translate(24,70)"/>
<path d="M0 0 C-3.66666667 3.66666667 -7.33333333 7.33333333 -11 11 C-9.92598892 8.08482708 -9.22189824 6.22189824 -7 4 C-6.3574765 1.93125966 -6.3574765 1.93125966 -6 0 C-2.25 -1.125 -2.25 -1.125 0 0 Z " fill="#F2ABAF" transform="translate(83,70)"/>
<path d="M0 0 C0.66 0.33 1.32 0.66 2 1 C1.36191406 1.54269531 0.72382812 2.08539062 0.06640625 2.64453125 C-0.75988281 3.35996094 -1.58617187 4.07539062 -2.4375 4.8125 C-3.26121094 5.52019531 -4.08492187 6.22789063 -4.93359375 6.95703125 C-7.22164759 8.91109686 -7.22164759 8.91109686 -8 12 C-9.32 11.67 -10.64 11.34 -12 11 C-10.56564079 9.5385774 -9.12739414 8.08096951 -7.6875 6.625 C-6.88699219 5.81289063 -6.08648437 5.00078125 -5.26171875 4.1640625 C-3 2 -3 2 0 0 Z " fill="#F6B4B9" transform="translate(57,29)"/>
<path d="M0 0 C5.27749285 0.53851968 9.25645564 1.77343836 14 4 C14 4.66 14 5.32 14 6 C11.03 5.505 11.03 5.505 8 5 C8 4.34 8 3.68 8 3 C5.36 2.34 2.72 1.68 0 1 C0 0.67 0 0.34 0 0 Z " fill="#F4B3B5" transform="translate(137,16)"/>
<path d="M0 0 C1.32 0.66 2.64 1.32 4 2 C3.3125 4.4375 3.3125 4.4375 2 7 C-0.625 7.8125 -0.625 7.8125 -3 8 C-2.505 7.4225 -2.01 6.845 -1.5 6.25 C0.36980013 3.89599371 0.36980013 3.89599371 0 0 Z " fill="#EB7178" transform="translate(48,174)"/>
<path d="M0 0 C0 3.99904969 -1.72586967 5.80200422 -4 9 C-6 6 -6 6 -6 4 C-5.01 4 -4.02 4 -3 4 C-3 3.01 -3 2.02 -3 1 C-2.01 0.67 -1.02 0.34 0 0 Z " fill="#EC8287" transform="translate(195,149)"/>
<path d="M0 0 C3.17462943 2.40242227 5.85751741 4.61713276 8 8 C8 8.66 8 9.32 8 10 C6.35 10 4.7 10 3 10 C3.061875 9.236875 3.12375 8.47375 3.1875 7.6875 C2.96666486 4.52219632 2.30301466 4.01513783 0 2 C0 1.34 0 0.68 0 0 Z " fill="#F0989E" transform="translate(181,43)"/>
<path d="M0 0 C0.33 0.66 0.66 1.32 1 2 C0.34 2 -0.32 2 -1 2 C-0.7215625 2.9590625 -0.7215625 2.9590625 -0.4375 3.9375 C-0.293125 4.618125 -0.14875 5.29875 0 6 C-1 7 -1 7 -3.5625 7.0625 C-4.7690625 7.0315625 -4.7690625 7.0315625 -6 7 C-4.19587357 3.73539027 -3.16605307 2.11070205 0 0 Z " fill="#E5313B" transform="translate(39,191)"/>
<path d="M0 0 C1.32 0.33 2.64 0.66 4 1 C2.56988027 1.86646667 1.13059381 2.71781829 -0.3125 3.5625 C-1.51326172 4.27599609 -1.51326172 4.27599609 -2.73828125 5.00390625 C-5 6 -5 6 -8 5 C-7.67 4.34 -7.34 3.68 -7 3 C-4.67843403 2.59270772 -2.3431213 2.25561323 0 2 C0 1.34 0 0.68 0 0 Z " fill="#E3343E" transform="translate(155,186)"/>
<path d="M0 0 C2.64 0 5.28 0 8 0 C8 0.66 8 1.32 8 2 C4.7 2.33 1.4 2.66 -2 3 C-1.34 2.67 -0.68 2.34 0 2 C0 1.34 0 0.68 0 0 Z " fill="#DF3E42" transform="translate(96,14)"/>
<path d="M0 0 C-3.465 2.97 -3.465 2.97 -7 6 C-7.66 5.67 -8.32 5.34 -9 5 C-8.875 3.125 -8.875 3.125 -8 1 C-2.71910112 -1.35955056 -2.71910112 -1.35955056 0 0 Z " fill="#F39FA4" transform="translate(176,176)"/>
<path d="M0 0 C0 2.96200864 -0.06343771 5.19031313 -1 8 C-3.5625 9.3125 -3.5625 9.3125 -6 10 C-4.6302836 6.00499382 -2.74277578 3.19990508 0 0 Z " fill="#F4B1B4" transform="translate(36,50)"/>
<path d="M0 0 C0.33 0 0.66 0 1 0 C1.3125 2.75 1.3125 2.75 1 6 C-1.5 8.375 -1.5 8.375 -4 10 C-2.8905928 6.51329166 -1.73662334 3.22515763 0 0 Z " fill="#F1A5AA" transform="translate(29,60)"/>
<path d="M0 0 C0.99 0.33 1.98 0.66 3 1 C-1.625 5 -1.625 5 -5 5 C-5 4.01 -5 3.02 -5 2 C-3.35 2 -1.7 2 0 2 C0 1.34 0 0.68 0 0 Z " fill="#EF9BA0" transform="translate(164,182)"/>
<path d="M0 0 C1.98 0 3.96 0 6 0 C6 0.66 6 1.32 6 2 C3.69 2.66 1.38 3.32 -1 4 C-0.67 2.68 -0.34 1.36 0 0 Z " fill="#ED8A8D" transform="translate(90,61)"/>
</svg>
