<svg version="1.1" id="Layer_1" xmlns="http://www.w3.org/2000/svg" xmlns:xlink="http://www.w3.org/1999/xlink" x="0px" y="0px"
	 width="50px" height="100%" viewBox="0 0 226 218" enable-background="new 0 0 226 218" xml:space="preserve">
<path fill="#000000" opacity="1.000000" stroke="none" 
	d="
M124.000000,219.000000 
	C82.666672,219.000000 41.833340,219.000000 1.000005,219.000000 
	C1.000004,146.333344 1.000004,73.666679 1.000002,1.000015 
	C76.333321,1.000010 151.666641,1.000010 226.999969,1.000005 
	C226.999985,73.666649 226.999985,146.333298 227.000000,218.999969 
	C192.833328,219.000000 158.666672,219.000000 124.000000,219.000000 
M83.744621,200.978714 
	C93.564995,200.905350 103.385376,200.831985 114.089233,200.900650 
	C118.347870,200.595230 122.623428,200.438293 126.861771,199.954926 
	C137.134369,198.783356 146.832230,195.679535 155.868729,190.654617 
	C167.736206,184.055466 178.511307,175.901901 186.414703,164.839828 
	C192.304352,156.596344 198.221863,147.890350 201.662323,138.488449 
	C207.339233,122.974869 208.426239,106.763428 205.184250,90.102646 
	C201.780350,72.609711 194.053284,57.665367 182.148575,44.873871 
	C171.412857,33.338463 158.942276,24.422413 143.483444,19.458231 
	C134.000916,16.413177 124.521477,13.838766 114.811531,14.302338 
	C104.611122,14.789322 94.371651,15.400174 84.287445,18.654322 
	C59.433514,26.674622 41.673626,42.836220 29.134197,64.981476 
	C23.381344,75.141312 19.797693,86.375351 20.024763,98.409210 
	C20.191818,107.262589 19.126366,116.337418 20.712723,124.925171 
	C24.177055,143.679367 33.596535,159.678284 46.856422,173.368332 
	C51.375782,178.034286 51.320499,177.993820 46.710758,182.900955 
	C41.836784,188.089386 37.189884,193.491119 32.443798,198.799667 
	C32.730301,199.453583 33.016808,200.107483 33.303310,200.761398 
	C49.800591,200.761398 66.297867,200.761398 83.744621,200.978714 
z"/>
<path fill="#E21F27" opacity="1.000000" stroke="none" 
	d="
M82.795143,200.761383 
	C66.297867,200.761398 49.800591,200.761398 33.303310,200.761398 
	C33.016808,200.107483 32.730301,199.453583 32.443798,198.799667 
	C37.189884,193.491119 41.836784,188.089386 46.710758,182.900955 
	C51.320499,177.993820 51.375782,178.034286 46.856422,173.368332 
	C33.596535,159.678284 24.177055,143.679367 20.712723,124.925171 
	C19.126366,116.337418 20.191818,107.262589 20.024763,98.409210 
	C19.797693,86.375351 23.381344,75.141312 29.134197,64.981476 
	C41.673626,42.836220 59.433514,26.674622 84.287445,18.654322 
	C94.371651,15.400174 104.611122,14.789322 114.811531,14.302338 
	C124.521477,13.838766 134.000916,16.413177 143.483444,19.458231 
	C158.942276,24.422413 171.412857,33.338463 182.148575,44.873871 
	C194.053284,57.665367 201.780350,72.609711 205.184250,90.102646 
	C208.426239,106.763428 207.339233,122.974869 201.662323,138.488449 
	C198.221863,147.890350 192.304352,156.596344 186.414703,164.839828 
	C178.511307,175.901901 167.736206,184.055466 155.868729,190.654617 
	C146.832230,195.679535 137.134369,198.783356 126.861771,199.954926 
	C122.623428,200.438293 118.347870,200.595230 113.309677,200.554581 
	C107.707397,200.111694 102.881767,199.865479 98.062737,199.958954 
	C92.970261,200.057785 87.884079,200.480286 82.795143,200.761383 
M135.865463,149.607193 
	C136.515015,149.099884 137.117477,148.512863 137.821091,148.097061 
	C151.223480,140.176804 158.386047,127.374496 160.607330,113.018394 
	C162.863281,98.438461 157.461075,85.252495 146.786636,74.066200 
	C134.071045,60.740856 117.910065,57.959919 102.020195,61.551460 
	C73.894791,67.908554 60.465057,93.667542 67.779625,121.287628 
	C71.502518,135.345428 80.228882,145.196426 93.497032,151.229004 
	C102.014236,155.101501 110.783768,155.844971 119.777626,154.048889 
	C124.976486,153.010651 130.045105,151.320251 135.865463,149.607193 
z"/>
<path fill="#EC8E96" opacity="1.000000" stroke="none" 
	d="
M83.269882,200.870056 
	C87.884079,200.480286 92.970261,200.057785 98.062737,199.958954 
	C102.881767,199.865479 107.707397,200.111694 112.867935,200.483566 
	C103.385376,200.831985 93.564995,200.905350 83.269882,200.870056 
z"/>
<path fill="#000000" opacity="1.000000" stroke="none" 
	d="
M135.518890,149.765274 
	C130.045105,151.320251 124.976486,153.010651 119.777626,154.048889 
	C110.783768,155.844971 102.014236,155.101501 93.497032,151.229004 
	C80.228882,145.196426 71.502518,135.345428 67.779625,121.287628 
	C60.465057,93.667542 73.894791,67.908554 102.020195,61.551460 
	C117.910065,57.959919 134.071045,60.740856 146.786636,74.066200 
	C157.461075,85.252495 162.863281,98.438461 160.607330,113.018394 
	C158.386047,127.374496 151.223480,140.176804 137.821091,148.097061 
	C137.117477,148.512863 136.515015,149.099884 135.518890,149.765274 
z"/>
</svg>