<?xml version="1.0" standalone="no"?>
<!DOCTYPE svg PUBLIC "-//W3C//DTD SVG 20010904//EN"
 "http://www.w3.org/TR/2001/REC-SVG-20010904/DTD/svg10.dtd">
<svg version="1.0" xmlns="http://www.w3.org/2000/svg"
 width="226.000000pt" height="218.000000pt" viewBox="0 0 226.000000 218.000000"
 preserveAspectRatio="xMidYMid meet">

<g transform="translate(0.000000,218.000000) scale(0.100000,-0.100000)"
fill="#000000" stroke="none">
<path d="M930 2021 c-178 -39 -307 -105 -433 -221 -143 -132 -235 -285 -283
-470 -24 -94 -24 -321 0 -420 37 -149 130 -319 237 -432 27 -28 49 -57 49 -65
0 -8 -32 -49 -71 -91 -38 -41 -77 -88 -85 -104 l-15 -28 433 0 c416 0 541 7
623 35 199 68 360 185 489 358 148 198 204 436 161 687 -59 355 -327 648 -676
740 -120 31 -314 37 -429 11z m330 -443 c62 -18 104 -41 160 -85 85 -66 134
-138 166 -242 18 -59 18 -213 0 -271 -46 -148 -180 -284 -323 -325 -72 -21
-214 -21 -283 -1 -79 24 -153 70 -214 137 -67 72 -108 158 -125 259 -42 255
157 517 414 543 55 6 163 -2 205 -15z"/>
</g>
</svg>
