<?xml version="1.0" standalone="no"?>
<!DOCTYPE svg PUBLIC "-//W3C//DTD SVG 20010904//EN"
 "http://www.w3.org/TR/2001/REC-SVG-20010904/DTD/svg10.dtd">
<svg version="1.0" xmlns="http://www.w3.org/2000/svg"
 width="477.000000pt" height="326.000000pt" viewBox="0 0 477.000000 326.000000"
 preserveAspectRatio="xMidYMid meet">

<g transform="translate(0.000000,326.000000) scale(0.100000,-0.100000)"
fill="#000000" stroke="none">
<path d="M2170 3034 c-197 -43 -350 -131 -492 -282 -143 -152 -220 -320 -240
-519 -28 -283 58 -539 245 -738 32 -33 57 -67 57 -75 0 -8 -32 -47 -69 -86
-38 -40 -77 -86 -85 -103 l-17 -31 438 0 c463 0 529 5 660 49 218 74 445 281
543 497 114 250 103 578 -27 814 -111 201 -304 368 -508 439 -149 51 -361 66
-505 35z m376 -465 c126 -53 242 -179 279 -304 8 -29 15 -90 15 -137 0 -142
-40 -238 -140 -338 -98 -99 -198 -140 -343 -140 -108 0 -176 18 -254 69 -111
72 -192 188 -215 309 -17 93 -4 218 32 295 34 73 113 166 175 205 90 57 142
71 263 72 105 0 119 -2 188 -31z"/>
<path d="M1235 895 c-91 -34 -141 -73 -183 -144 -95 -162 -33 -363 140 -452
35 -19 60 -23 133 -23 105 -1 160 20 225 83 l41 39 -3 104 -3 103 -145 0 -145
0 0 -25 0 -25 123 -3 122 -3 0 -63 c0 -78 -18 -104 -95 -140 -97 -46 -207 -32
-290 37 -93 78 -122 215 -69 321 32 64 45 78 107 118 46 29 57 32 131 32 82
-1 145 -22 177 -60 15 -18 45 -18 53 1 7 20 -27 51 -94 83 -67 32 -165 39
-225 17z"/>
<path d="M2648 793 c-15 -4 -18 -16 -18 -84 0 -76 -1 -79 -23 -79 -13 0 -32 7
-43 15 -12 9 -43 14 -85 15 -57 0 -72 -4 -111 -30 -138 -91 -108 -302 50 -357
60 -21 90 -17 170 20 17 8 28 8 42 -1 50 -31 50 -31 50 242 0 140 -3 257 -7
259 -5 2 -16 2 -25 0z m-127 -185 c22 -7 54 -28 71 -45 29 -30 32 -39 32 -96
0 -75 -19 -107 -80 -137 -52 -26 -80 -25 -134 3 -59 30 -83 75 -77 145 3 43
10 59 35 85 26 26 73 51 105 56 4 0 25 -5 48 -11z"/>
<path d="M1817 631 c-58 -38 -87 -91 -87 -163 1 -100 57 -174 154 -200 86 -23
187 28 226 114 33 73 22 146 -30 210 -42 51 -81 68 -155 68 -51 0 -69 -5 -108
-29z m166 -30 c54 -23 88 -68 95 -126 12 -108 -109 -191 -214 -147 -53 22 -79
68 -79 139 0 57 3 65 33 96 30 30 73 53 109 56 6 1 31 -8 56 -18z"/>
<path d="M2943 633 c-109 -70 -120 -239 -21 -323 33 -27 90 -50 129 -50 57 0
149 56 149 91 0 26 -25 24 -63 -5 -43 -31 -79 -39 -127 -26 -64 17 -124 99
-89 121 8 5 83 9 167 9 118 0 154 3 158 13 8 22 -26 110 -54 140 -41 44 -75
57 -145 57 -51 0 -71 -5 -104 -27z m158 -27 c44 -18 81 -62 77 -89 -3 -21 -9
-22 -113 -25 -137 -4 -159 1 -149 31 14 47 78 94 130 96 12 1 37 -5 55 -13z"/>
<path d="M3379 638 c7 -18 120 -290 148 -355 2 -6 10 -10 17 -7 13 5 15 9 95
209 29 72 57 138 62 147 13 26 12 28 -19 28 -28 0 -29 -1 -69 -105 -8 -22 -20
-51 -25 -65 -36 -93 -55 -100 -81 -33 -50 129 -70 177 -80 191 -5 6 -20 12
-33 12 -20 0 -22 -3 -15 -22z"/>
</g>
</svg>
