<svg xmlns="http://www.w3.org/2000/svg" width="226" height="218" viewBox="0 0 226 218" version="1.1"><path d="M 91.516 14.659 C 58.479 21.738, 31.288 47.370, 20.794 81.329 C 18.878 87.527, 18.575 90.806, 18.558 105.500 C 18.536 125.144, 19.520 130.033, 26.432 144.626 C 31.709 155.764, 35.290 161.099, 43.086 169.433 C 46.339 172.910, 49 176.176, 49 176.690 C 49 177.205, 47.590 178.948, 45.866 180.563 C 41.864 184.315, 31 197.836, 31 199.066 C 31 199.632, 49.435 200, 77.750 200 C 125.354 200, 128.446 199.804, 141.500 195.950 C 152.404 192.731, 170.605 181.016, 179.308 171.614 C 197.979 151.444, 205.997 131.774, 205.999 106.136 C 206.002 62.039, 174.708 23.431, 131.792 14.588 C 122.020 12.575, 101.073 12.612, 91.516 14.659 M 98.500 14.622 C 97.400 14.896, 92.675 16.043, 88 17.170 C 59.885 23.948, 35.633 46.013, 24.439 75 C 20.788 84.455, 19.730 91.595, 19.769 106.500 C 19.803 119.711, 20.122 122.560, 22.439 130.386 C 27.040 145.925, 33.980 158.261, 44.431 169.477 C 47.494 172.765, 50 176.075, 50 176.833 C 50 177.591, 46.823 181.613, 42.940 185.771 C 39.057 189.929, 35.221 194.606, 34.414 196.165 L 32.949 199 76.224 198.983 C 117.781 198.966, 130.273 198.263, 138.500 195.477 C 161.412 187.721, 180.318 172.660, 192.463 152.492 C 200.183 139.671, 204.968 122.064, 204.963 106.500 C 204.947 64.912, 176.279 27.735, 135.935 16.989 C 129.656 15.317, 124.049 14.663, 114 14.433 C 106.575 14.263, 99.600 14.348, 98.500 14.622 M 105.500 58.665 C 79.971 61.323, 60.125 87.401, 64.149 113 C 67.053 131.476, 79.711 146.519, 97.401 152.519 C 103.881 154.717, 118.682 154.730, 126.201 152.544 C 140.579 148.364, 154.023 134.858, 158.594 120 C 160.384 114.182, 160.374 98.804, 158.577 92.881 C 153.795 77.126, 141.683 64.969, 126 60.184 C 121.766 58.892, 110.990 58.094, 105.500 58.665 M 95 62.657 C 77.981 69.465, 66.851 84.161, 65.416 101.720 C 64.205 116.529, 68.029 127.682, 77.955 138.293 C 87.594 148.597, 97.800 152.966, 112.282 152.988 C 125.407 153.008, 136.790 148.149, 145.691 138.728 C 154.882 128.999, 159.009 119.018, 158.988 106.568 C 158.955 86.572, 147.594 70.020, 128.829 62.628 C 123.124 60.380, 120.664 60.004, 111.829 60.028 C 103.080 60.052, 100.506 60.454, 95 62.657" stroke="none" fill="#e9898d" fill-rule="evenodd"/><path d="M 98.500 14.622 C 97.400 14.896, 92.675 16.043, 88 17.170 C 59.885 23.948, 35.633 46.013, 24.439 75 C 20.788 84.455, 19.730 91.595, 19.769 106.500 C 19.803 119.711, 20.122 122.560, 22.439 130.386 C 27.040 145.925, 33.980 158.261, 44.431 169.477 C 47.494 172.765, 50 176.075, 50 176.833 C 50 177.591, 46.823 181.613, 42.940 185.771 C 39.057 189.929, 35.221 194.606, 34.414 196.165 L 32.949 199 76.224 198.983 C 117.781 198.966, 130.273 198.263, 138.500 195.477 C 161.412 187.721, 180.318 172.660, 192.463 152.492 C 200.183 139.671, 204.968 122.064, 204.963 106.500 C 204.947 64.912, 176.279 27.735, 135.935 16.989 C 129.656 15.317, 124.049 14.663, 114 14.433 C 106.575 14.263, 99.600 14.348, 98.500 14.622 M 105.500 58.665 C 79.971 61.323, 60.125 87.401, 64.149 113 C 67.053 131.476, 79.711 146.519, 97.401 152.519 C 103.881 154.717, 118.682 154.730, 126.201 152.544 C 140.579 148.364, 154.023 134.858, 158.594 120 C 160.384 114.182, 160.374 98.804, 158.577 92.881 C 153.795 77.126, 141.683 64.969, 126 60.184 C 121.766 58.892, 110.990 58.094, 105.500 58.665" stroke="none" fill="#e41d25" fill-rule="evenodd"/></svg>