<svg version="1.1" id="Layer_1" xmlns="http://www.w3.org/2000/svg" xmlns:xlink="http://www.w3.org/1999/xlink" x="0px" y="0px"
	 width="100%" viewBox="0 0 226 218" enable-background="new 0 0 226 218" xml:space="preserve">
<path fill="#FFFEFE" opacity="1.000000" stroke="none" 
	d="
M158.000000,219.000000 
	C105.333336,219.000000 53.166672,219.000000 1.000007,219.000000 
	C1.000005,146.333344 1.000005,73.666679 1.000002,1.000017 
	C76.333321,1.000011 151.666641,1.000011 226.999969,1.000006 
	C226.999985,73.666649 226.999985,146.333298 227.000000,218.999969 
	C204.166672,219.000000 181.333328,219.000000 158.000000,219.000000 
M114.222466,200.625336 
	C129.883224,199.968613 144.769638,196.625793 158.522797,188.692886 
	C198.262833,165.770645 216.625519,119.758522 201.147507,76.696800 
	C183.999008,28.987619 136.344345,5.081690 87.211769,17.938810 
	C52.040798,27.142431 22.667942,62.028950 20.200130,97.797554 
	C18.228006,126.381668 26.337219,150.923096 46.047001,171.632584 
	C51.798103,177.675400 51.730644,177.442734 46.219604,183.531067 
	C41.538048,188.702988 37.281830,194.259903 31.990137,200.673370 
	C60.344006,200.673370 86.809204,200.673370 114.222466,200.625336 
z"/>
<path fill="#E41E26" opacity="1.000000" stroke="none" 
	d="
M113.748428,200.649353 
	C86.809204,200.673370 60.344006,200.673370 31.990137,200.673370 
	C37.281830,194.259903 41.538048,188.702988 46.219604,183.531067 
	C51.730644,177.442734 51.798103,177.675400 46.047001,171.632584 
	C26.337219,150.923096 18.228006,126.381668 20.200130,97.797554 
	C22.667942,62.028950 52.040798,27.142431 87.211769,17.938810 
	C136.344345,5.081690 183.999008,28.987619 201.147507,76.696800 
	C216.625519,119.758522 198.262833,165.770645 158.522797,188.692886 
	C144.769638,196.625793 129.883224,199.968613 113.748428,200.649353 
M92.089821,150.462021 
	C103.053871,155.735519 114.362770,156.566422 126.057198,153.268814 
	C152.342438,145.856888 166.235596,120.334091 158.856918,92.904755 
	C152.678833,69.938446 124.943985,54.548210 100.921593,60.989197 
	C84.335892,65.436226 66.887672,79.343620 65.066315,104.519547 
	C63.799747,122.026817 72.598152,140.410278 92.089821,150.462021 
z"/>
<path fill="#FFFDFD" opacity="1.000000" stroke="none" 
	d="
M91.734840,150.335815 
	C72.598152,140.410278 63.799747,122.026817 65.066315,104.519547 
	C66.887672,79.343620 84.335892,65.436226 100.921593,60.989197 
	C124.943985,54.548210 152.678833,69.938446 158.856918,92.904755 
	C166.235596,120.334091 152.342438,145.856888 126.057198,153.268814 
	C114.362770,156.566422 103.053871,155.735519 91.734840,150.335815 
z"/>
</svg>